<?xml version="1.0" encoding="UTF-8" standalone="no"?>
<!-- Created with Inkscape (http://www.inkscape.org/) -->

<svg
   xmlns:dc="http://purl.org/dc/elements/1.1/"
   xmlns:cc="http://creativecommons.org/ns#"
   xmlns:rdf="http://www.w3.org/1999/02/22-rdf-syntax-ns#"
   xmlns:svg="http://www.w3.org/2000/svg"
   xmlns="http://www.w3.org/2000/svg"
   xmlns:sodipodi="http://sodipodi.sourceforge.net/DTD/sodipodi-0.dtd"
   xmlns:inkscape="http://www.inkscape.org/namespaces/inkscape"
   width="360"
   height="360"
   viewBox="0 0 360 360.00001"
   id="svg2"
   version="1.1"
   inkscape:version="0.91 r13725"
   inkscape:export-filename="/Users/Adam/Desktop/crota images/crystal/drawable-xxhdpi/crota_timer_button_crystal.png"
   inkscape:export-xdpi="90"
   inkscape:export-ydpi="90"
   sodipodi:docname="crota_timer_button_crystal.svg">
  <defs
     id="defs4" />
  <sodipodi:namedview
     id="base"
     pagecolor="#ffffff"
     bordercolor="#666666"
     borderopacity="1.0"
     inkscape:pageopacity="0.0"
     inkscape:pageshadow="2"
     inkscape:zoom="2.16"
     inkscape:cx="120.60185"
     inkscape:cy="205.31474"
     inkscape:document-units="px"
     inkscape:current-layer="layer1"
     showgrid="false"
     units="px"
     inkscape:window-width="1843"
     inkscape:window-height="1155"
     inkscape:window-x="77"
     inkscape:window-y="0"
     inkscape:window-maximized="1" />
  <metadata
     id="metadata7">
    <rdf:RDF>
      <cc:Work
         rdf:about="">
        <dc:format>image/svg+xml</dc:format>
        <dc:type
           rdf:resource="http://purl.org/dc/dcmitype/StillImage" />
        <dc:title />
      </cc:Work>
    </rdf:RDF>
  </metadata>
  <g
     inkscape:label="Layer 1"
     inkscape:groupmode="layer"
     id="layer1"
     transform="translate(0,-692.36216)">
    <g
       id="g8689"
       transform="translate(0,6.840104)"
       style="stroke:none;stroke-opacity:1">
      <path
         inkscape:connector-curvature="0"
         id="path8116"
         d="M 180,935.32758 A 150.46297,43.98148 0 0 0 29.53711,979.31 150.46297,43.98148 0 0 0 180,1023.2904 150.46297,43.98148 0 0 0 330.46289,979.31 150.46297,43.98148 0 0 0 180,935.32758 Z m -0.69336,14.6836 A 99.126999,29.297462 0 0 1 278.4336,979.31 99.126999,29.297462 0 0 1 179.30664,1008.6068 99.126999,29.297462 0 0 1 80.179688,979.31 99.126999,29.297462 0 0 1 179.30664,950.01118 Z"
         style="fill:#ffffff;fill-opacity:1;stroke:none;stroke-opacity:1" />
      <path
         sodipodi:nodetypes="ccccccccccc"
         inkscape:connector-curvature="0"
         id="path3336"
         d="m 217.14989,991.06909 37.03703,-95.83334 -31.94443,25.92592 22.2222,-89.35184 -43.51851,-123.61111 -50.92591,54.62962 -21.29631,83.79629 11.57408,79.62964 -35.18518,-21.29631 38.42592,85.18523 z"
         style="fill:#ffffff;fill-opacity:1;fill-rule:evenodd;stroke:none;stroke-width:1px;stroke-linecap:butt;stroke-linejoin:miter;stroke-opacity:1" />
    </g>
  </g>
</svg>
